<?xml version="1.0" encoding="utf-8"?>
<!-- Generator: Adobe Illustrator 27.5.0, SVG Export Plug-In . SVG Version: 6.00 Build 0)  -->
<svg version="1.1" id="Layer_1" xmlns="http://www.w3.org/2000/svg" xmlns:xlink="http://www.w3.org/1999/xlink" x="0px" y="0px"
	 viewBox="0 0 1000 1000" style="enable-background:new 0 0 1000 1000;" xml:space="preserve">
<g>
	<defs>
		<rect id="SVGID_1_" width="1000" height="1000"/>
	</defs>
	<clipPath id="SVGID_00000036971327802396201290000005185189203558637738_">
		<use xlink:href="#SVGID_1_"  style="overflow:visible;"/>
	</clipPath>
	<g style="clip-path:url(#SVGID_00000036971327802396201290000005185189203558637738_);">
		<g id="all_10">
			<g transform="translate(50,50) scale(0.1288) rotate(-25)">
				<g id="shape_10_1">
					<path d="M44.164,52.722l3.115-8.558l8.558,3.115l-3.115,8.558L44.164,52.722z M45.331,52.177l6.847,2.492l2.492-6.847
						l-6.847-2.492L45.331,52.177z"/>
				</g>
			</g>
			<g transform="translate(50,150) scale(0.18032) rotate(-25)">
				<g id="shape_10_1_1_">
					<path d="M41.829,153.811l4.361-11.982l11.982,4.361l-4.361,11.982L41.829,153.811z M43.463,153.048l9.585,3.489l3.489-9.585
						l-9.585-3.489L43.463,153.048z"/>
				</g>
			</g>
			<g transform="translate(50,250) scale(0.23184) rotate(-25)">
				<g id="shape_10_1_2_">
					<path d="M39.494,254.899l5.607-15.405l15.405,5.607l-5.607,15.405L39.494,254.899z M41.595,253.919l12.324,4.486l4.485-12.324
						l-12.324-4.486L41.595,253.919z"/>
				</g>
			</g>
			<g transform="translate(50,350) scale(0.28336) rotate(-25)">
				<g id="shape_10_1_3_">
					<path d="M37.16,355.988l6.853-18.829l18.828,6.853l-6.853,18.829L37.16,355.988z M39.728,354.79l15.063,5.483l5.482-15.063
						l-15.063-5.482L39.728,354.79z"/>
				</g>
			</g>
			<g transform="translate(50,450) scale(0.33488) rotate(-25)">
				<g id="shape_10_1_4_">
					<path d="M34.825,457.076l8.099-22.251l22.251,8.099l-8.099,22.251L34.825,457.076z M37.86,455.661l17.801,6.48l6.479-17.802
						l-17.801-6.479L37.86,455.661z"/>
				</g>
			</g>
			<g transform="translate(50,550) scale(0.3864) rotate(-25)">
				<g id="shape_10_1_5_">
					<path d="M32.49,558.165l9.345-25.675l25.675,9.345l-9.345,25.675L32.49,558.165z M35.992,556.532l20.54,7.476l7.476-20.54
						l-20.54-7.476L35.992,556.532z"/>
				</g>
			</g>
			<g transform="translate(50,650) scale(0.43792) rotate(-25)">
				<g id="shape_10_1_6_">
					<path d="M30.155,659.254l10.591-29.099l29.098,10.591l-10.591,29.099L30.155,659.254z M34.125,657.403l23.278,8.473
						l8.473-23.279l-23.278-8.473L34.125,657.403z"/>
				</g>
			</g>
			<g transform="translate(50,750) scale(0.48944) rotate(-25)">
				<g id="shape_10_1_7_">
					<path d="M27.821,760.343l11.837-32.521l32.521,11.836l-11.837,32.521L27.821,760.343z M32.257,758.273l26.017,9.47
						l9.469-26.017l-26.017-9.47L32.257,758.273z"/>
				</g>
			</g>
			<g transform="translate(50,850) scale(0.54096) rotate(-25)">
				<g id="shape_10_1_8_">
					<path d="M25.486,861.431l13.083-35.944l35.945,13.083l-13.083,35.944L25.486,861.431z M30.389,859.144l28.756,10.467
						l10.466-28.756l-28.756-10.467L30.389,859.144z"/>
				</g>
			</g>
			<g transform="translate(50,950) scale(0.59248) rotate(-25)">
				<g id="shape_10_1_9_">
					<path d="M23.151,962.519l14.329-39.368l39.368,14.329L62.52,976.849L23.151,962.519z M28.521,960.016l31.495,11.463
						l11.463-31.494l-31.495-11.463L28.521,960.016z"/>
				</g>
			</g>
			<g transform="translate(150,50) scale(0.1176) rotate(-25)">
				<g id="shape_10_1_10_">
					<path d="M144.671,52.485l2.844-7.814l7.814,2.844l-2.844,7.814L144.671,52.485z M145.737,51.988l6.251,2.275l2.275-6.251
						l-6.251-2.275L145.737,51.988z"/>
				</g>
			</g>
			<g transform="translate(150,150) scale(0.16464) rotate(-25)">
				<g id="shape_10_1_11_">
					<path d="M142.539,153.479l3.982-10.94l10.94,3.982l-3.982,10.94L142.539,153.479z M144.031,152.783l8.752,3.186l3.186-8.752
						l-8.752-3.186L144.031,152.783z"/>
				</g>
			</g>
			<g transform="translate(150,250) scale(0.21168) rotate(-25)">
				<g id="shape_10_1_12_">
					<path d="M140.408,254.473l5.119-14.065l14.065,5.119l-5.119,14.065L140.408,254.473z M142.326,253.578l11.252,4.096
						l4.095-11.252l-11.252-4.096L142.326,253.578z"/>
				</g>
			</g>
			<g transform="translate(150,350) scale(0.25872) rotate(-25)">
				<g id="shape_10_1_13_">
					<path d="M138.276,355.467l6.257-17.191l17.191,6.257l-6.257,17.191L138.276,355.467z M140.621,354.374l13.753,5.006
						l5.006-13.753l-13.753-5.006L140.621,354.374z"/>
				</g>
			</g>
			<g transform="translate(150,450) scale(0.30576) rotate(-25)">
				<g id="shape_10_1_14_">
					<path d="M136.145,456.461l7.395-20.316l20.316,7.395l-7.395,20.316L136.145,456.461z M138.915,455.169l16.253,5.916
						l5.916-16.254l-16.253-5.916L138.915,455.169z"/>
				</g>
			</g>
			<g transform="translate(150,550) scale(0.3528) rotate(-25)">
				<g id="shape_10_1_15_">
					<path d="M134.013,557.455l8.532-23.442l23.442,8.532l-8.532,23.442L134.013,557.455z M137.21,555.964l18.754,6.826
						l6.826-18.754l-18.754-6.826L137.21,555.964z"/>
				</g>
			</g>
			<g transform="translate(150,650) scale(0.39984) rotate(-25)">
				<g id="shape_10_1_16_">
					<path d="M131.881,658.449l9.67-26.568l26.568,9.67l-9.67,26.568L131.881,658.449z M135.505,656.759l21.254,7.736l7.736-21.254
						l-21.254-7.736L135.505,656.759z"/>
				</g>
			</g>
			<g transform="translate(150,750) scale(0.44688) rotate(-25)">
				<g id="shape_10_1_17_">
					<path d="M129.749,759.443l10.808-29.694l29.693,10.808l-10.808,29.694L129.749,759.443z M133.8,757.555l23.754,8.646
						l8.646-23.755l-23.754-8.646L133.8,757.555z"/>
				</g>
			</g>
			<g transform="translate(150,850) scale(0.49392) rotate(-25)">
				<g id="shape_10_1_18_">
					<path d="M127.618,860.437l11.945-32.818l32.819,11.945l-11.945,32.818L127.618,860.437z M132.094,858.35l26.255,9.556
						l9.556-26.255l-26.255-9.556L132.094,858.35z"/>
				</g>
			</g>
			<g transform="translate(150,950) scale(0.54096) rotate(-25)">
				<g id="shape_10_1_19_">
					<path d="M125.486,961.431l13.083-35.944l35.945,13.083l-13.083,35.944L125.486,961.431z M130.389,959.144l28.756,10.467
						l10.466-28.756l-28.756-10.467L130.389,959.144z"/>
				</g>
			</g>
			<g transform="translate(250,50) scale(0.1064) rotate(-25)">
				<g id="shape_10_1_20_">
					<path d="M245.178,52.249l2.573-7.07l7.07,2.573l-2.573,7.07L245.178,52.249z M246.143,51.799l5.656,2.059l2.059-5.656
						l-5.656-2.059L246.143,51.799z"/>
				</g>
			</g>
			<g transform="translate(250,150) scale(0.14896) rotate(-25)">
				<g id="shape_10_1_21_">
					<path d="M243.25,153.148l3.602-9.898l9.898,3.603l-3.602,9.897L243.25,153.148z M244.6,152.518l7.919,2.882l2.882-7.919
						l-7.919-2.882L244.6,152.518z"/>
				</g>
			</g>
			<g transform="translate(250,250) scale(0.19152) rotate(-25)">
				<g id="shape_10_1_22_">
					<path d="M241.321,254.047l4.632-12.726l12.726,4.632l-4.632,12.726L241.321,254.047z M243.057,253.238l10.181,3.705
						l3.705-10.181l-10.181-3.705L243.057,253.238z"/>
				</g>
			</g>
			<g transform="translate(250,350) scale(0.23408) rotate(-25)">
				<g id="shape_10_1_23_">
					<path d="M239.393,354.946l5.661-15.554l15.554,5.661l-5.661,15.554L239.393,354.946z M241.514,353.957l12.443,4.529
						l4.529-12.443l-12.443-4.529L241.514,353.957z"/>
				</g>
			</g>
			<g transform="translate(250,450) scale(0.27664) rotate(-25)">
				<g id="shape_10_1_24_">
					<path d="M237.464,455.846l6.69-18.382l18.382,6.69l-6.69,18.382L237.464,455.846z M239.971,454.677l14.706,5.352l5.352-14.706
						l-14.706-5.353L239.971,454.677z"/>
				</g>
			</g>
			<g transform="translate(250,550) scale(0.3192) rotate(-25)">
				<g id="shape_10_1_25_">
					<path d="M235.535,556.745l7.72-21.21l21.21,7.72l-7.72,21.21L235.535,556.745z M238.428,555.396l16.968,6.175l6.176-16.968
						l-16.968-6.175L238.428,555.396z"/>
				</g>
			</g>
			<g transform="translate(250,650) scale(0.36176) rotate(-25)">
				<g id="shape_10_1_26_">
					<path d="M233.607,657.645l8.749-24.038l24.038,8.749l-8.749,24.038L233.607,657.645z M236.885,656.115l19.23,6.999
						l6.999-19.229l-19.23-6.999L236.885,656.115z"/>
				</g>
			</g>
			<g transform="translate(250,750) scale(0.40432) rotate(-25)">
				<g id="shape_10_1_27_">
					<path d="M231.678,758.544l9.778-26.866l26.865,9.778l-9.778,26.866L231.678,758.544z M235.342,756.835l21.493,7.822
						l7.823-21.492l-21.493-7.822L235.342,756.835z"/>
				</g>
			</g>
			<g transform="translate(250,850) scale(0.44688) rotate(-25)">
				<g id="shape_10_1_28_">
					<path d="M229.749,859.443l10.808-29.694l29.693,10.808l-10.808,29.694L229.749,859.443z M233.8,857.555l23.754,8.646
						l8.646-23.755l-23.754-8.646L233.8,857.555z"/>
				</g>
			</g>
			<g transform="translate(250,950) scale(0.48944) rotate(-25)">
				<g id="shape_10_1_29_">
					<path d="M227.821,960.343l11.837-32.521l32.521,11.836l-11.837,32.521L227.821,960.343z M232.257,958.273l26.017,9.47
						l9.469-26.017l-26.017-9.47L232.257,958.273z"/>
				</g>
			</g>
			<g transform="translate(350,50) scale(0.0952) rotate(-25)">
				<g id="shape_10_1_30_">
					<path d="M345.685,52.012l2.303-6.326l6.326,2.302l-2.303,6.326L345.685,52.012z M346.549,51.609l5.061,1.842l1.842-5.061
						l-5.061-1.842L346.549,51.609z"/>
				</g>
			</g>
			<g transform="translate(350,150) scale(0.13328) rotate(-25)">
				<g id="shape_10_1_31_">
					<path d="M343.96,152.816l3.224-8.856l8.856,3.223l-3.224,8.856L343.96,152.816z M345.168,152.253l7.085,2.579l2.579-7.084
						l-7.085-2.579L345.168,152.253z"/>
				</g>
			</g>
			<g transform="translate(350,250) scale(0.17136) rotate(-25)">
				<g id="shape_10_1_32_">
					<path d="M342.234,253.621l4.145-11.386l11.387,4.144l-4.145,11.386L342.234,253.621z M343.788,252.897l9.108,3.315l3.315-9.109
						l-9.108-3.315L343.788,252.897z"/>
				</g>
			</g>
			<g transform="translate(350,350) scale(0.20944) rotate(-25)">
				<g id="shape_10_1_33_">
					<path d="M340.509,354.426l5.065-13.917l13.917,5.065l-5.065,13.917L340.509,354.426z M342.407,353.541l11.134,4.052
						l4.052-11.133l-11.134-4.052L342.407,353.541z"/>
				</g>
			</g>
			<g transform="translate(350,450) scale(0.24752) rotate(-25)">
				<g id="shape_10_1_34_">
					<path d="M338.783,455.23l5.986-16.447l16.447,5.986l-5.986,16.447L338.783,455.23z M341.026,454.185l13.158,4.789l4.789-13.158
						l-13.158-4.789L341.026,454.185z"/>
				</g>
			</g>
			<g transform="translate(350,550) scale(0.2856) rotate(-25)">
				<g id="shape_10_1_35_">
					<path d="M337.058,556.035l6.907-18.978l18.978,6.907l-6.907,18.978L337.058,556.035z M339.646,554.828l15.182,5.525
						l5.525-15.182l-15.182-5.525L339.646,554.828z"/>
				</g>
			</g>
			<g transform="translate(350,650) scale(0.32368) rotate(-25)">
				<g id="shape_10_1_36_">
					<path d="M335.332,656.84l7.828-21.508l21.508,7.828l-7.828,21.508L335.332,656.84z M338.266,655.472l17.206,6.263l6.263-17.206
						l-17.206-6.263L338.266,655.472z"/>
				</g>
			</g>
			<g transform="translate(350,750) scale(0.36176) rotate(-25)">
				<g id="shape_10_1_37_">
					<path d="M333.606,757.645l8.749-24.038l24.038,8.749l-8.749,24.038L333.606,757.645z M336.886,756.115l19.23,6.999
						l6.999-19.229l-19.229-6.999L336.886,756.115z"/>
				</g>
			</g>
			<g transform="translate(350,850) scale(0.39984) rotate(-25)">
				<g id="shape_10_1_38_">
					<path d="M331.881,858.449l9.67-26.568l26.568,9.67l-9.67,26.568L331.881,858.449z M335.505,856.759l21.254,7.736l7.736-21.254
						l-21.254-7.736L335.505,856.759z"/>
				</g>
			</g>
			<g transform="translate(350,950) scale(0.43792) rotate(-25)">
				<g id="shape_10_1_39_">
					<path d="M330.155,959.254l10.591-29.099l29.099,10.591l-10.591,29.099L330.155,959.254z M334.124,957.403l23.279,8.473
						l8.473-23.279l-23.279-8.473L334.124,957.403z"/>
				</g>
			</g>
			<g transform="translate(450,50) scale(0.084) rotate(-25)">
				<g id="shape_10_1_40_">
					<path d="M446.193,51.775l2.031-5.582l5.582,2.032l-2.031,5.582L446.193,51.775z M446.955,51.42l4.465,1.625l1.625-4.465
						l-4.465-1.625L446.955,51.42z"/>
				</g>
			</g>
			<g transform="translate(450,150) scale(0.1176) rotate(-25)">
				<g id="shape_10_1_41_">
					<path d="M444.671,152.485l2.844-7.814l7.815,2.844l-2.844,7.814L444.671,152.485z M445.736,151.988l6.252,2.275l2.275-6.251
						l-6.252-2.275L445.736,151.988z"/>
				</g>
			</g>
			<g transform="translate(450,250) scale(0.1512) rotate(-25)">
				<g id="shape_10_1_42_">
					<path d="M443.148,253.195l3.656-10.046l10.047,3.657l-3.656,10.046L443.148,253.195z M444.519,252.556l8.037,2.925l2.926-8.038
						l-8.037-2.925L444.519,252.556z"/>
				</g>
			</g>
			<g transform="translate(450,350) scale(0.1848) rotate(-25)">
				<g id="shape_10_1_43_">
					<path d="M441.626,353.905l4.469-12.279l12.279,4.47l-4.469,12.279L441.626,353.905z M443.301,353.124l9.823,3.575l3.575-9.823
						l-9.823-3.575L443.301,353.124z"/>
				</g>
			</g>
			<g transform="translate(450,450) scale(0.2184) rotate(-25)">
				<g id="shape_10_1_44_">
					<path d="M440.103,454.615l5.281-14.512l14.512,5.281l-5.281,14.512L440.103,454.615z M442.082,453.692l11.61,4.226l4.226-11.61
						l-11.61-4.226L442.082,453.692z"/>
				</g>
			</g>
			<g transform="translate(450,550) scale(0.252) rotate(-25)">
				<g id="shape_10_1_45_">
					<path d="M438.58,555.325l6.095-16.745l16.745,6.095l-6.095,16.745L438.58,555.325z M440.864,554.26l13.396,4.876l4.876-13.395
						l-13.395-4.876L440.864,554.26z"/>
				</g>
			</g>
			<g transform="translate(450,650) scale(0.2856) rotate(-25)">
				<g id="shape_10_1_46_">
					<path d="M437.058,656.035l6.907-18.978l18.978,6.907l-6.907,18.978L437.058,656.035z M439.646,654.828l15.182,5.525
						l5.525-15.182l-15.182-5.525L439.646,654.828z"/>
				</g>
			</g>
			<g transform="translate(450,750) scale(0.3192) rotate(-25)">
				<g id="shape_10_1_47_">
					<path d="M435.535,756.745l7.72-21.21l21.21,7.72l-7.72,21.21L435.535,756.745z M438.429,755.396l16.968,6.176l6.175-16.967
						l-16.968-6.176L438.429,755.396z"/>
				</g>
			</g>
			<g transform="translate(450,850) scale(0.3528) rotate(-25)">
				<g id="shape_10_1_48_">
					<path d="M434.013,857.455l8.532-23.442l23.442,8.532l-8.532,23.442L434.013,857.455z M437.21,855.964l18.754,6.826
						l6.826-18.754l-18.754-6.826L437.21,855.964z"/>
				</g>
			</g>
			<g transform="translate(450,950) scale(0.3864) rotate(-25)">
				<g id="shape_10_1_49_">
					<path d="M432.49,958.165l9.345-25.675l25.675,9.345l-9.345,25.675L432.49,958.165z M435.992,956.532l20.54,7.476l7.476-20.54
						l-20.54-7.476L435.992,956.532z"/>
				</g>
			</g>
			<g transform="translate(550,50) scale(0.0728) rotate(-25)">
				<g id="shape_10_1_50_">
					<path d="M546.701,51.538l1.761-4.837l4.837,1.761l-1.761,4.837L546.701,51.538z M547.361,51.231l3.869,1.409l1.408-3.87
						l-3.869-1.409L547.361,51.231z"/>
				</g>
			</g>
			<g transform="translate(550,150) scale(0.10192) rotate(-25)">
				<g id="shape_10_1_51_">
					<path d="M545.382,152.154l2.465-6.773l6.771,2.465l-2.465,6.772L545.382,152.154z M546.305,151.723l5.418,1.972l1.973-5.418
						l-5.418-1.972L546.305,151.723z"/>
				</g>
			</g>
			<g transform="translate(550,250) scale(0.13104) rotate(-25)">
				<g id="shape_10_1_52_">
					<path d="M544.061,252.769l3.17-8.707l8.707,3.169l-3.17,8.707L544.061,252.769z M545.25,252.215l6.965,2.535l2.535-6.966
						l-6.965-2.535L545.25,252.215z"/>
				</g>
			</g>
			<g transform="translate(550,350) scale(0.16016) rotate(-25)">
				<g id="shape_10_1_53_">
					<path d="M542.742,353.384l3.873-10.642l10.643,3.874l-3.873,10.642L542.742,353.384z M544.193,352.708l8.514,3.099l3.1-8.514
						l-8.514-3.099L544.193,352.708z"/>
				</g>
			</g>
			<g transform="translate(550,450) scale(0.18928) rotate(-25)">
				<g id="shape_10_1_54_">
					<path d="M541.423,454L546,441.423L558.577,446L554,458.577L541.423,454z M543.139,453.2l10.061,3.662l3.662-10.063
						l-10.06-3.662L543.139,453.2z"/>
				</g>
			</g>
			<g transform="translate(550,550) scale(0.2184) rotate(-25)">
				<g id="shape_10_1_55_">
					<path d="M540.104,554.615l5.281-14.512l14.512,5.281l-5.281,14.512L540.104,554.615z M542.082,553.692l11.61,4.226l4.226-11.61
						l-11.61-4.226L542.082,553.692z"/>
				</g>
			</g>
			<g transform="translate(550,650) scale(0.24752) rotate(-25)">
				<g id="shape_10_1_56_">
					<path d="M538.783,655.231l5.986-16.447l16.447,5.986l-5.986,16.447L538.783,655.231z M541.027,654.185l13.157,4.789
						l4.788-13.158l-13.157-4.789L541.027,654.185z"/>
				</g>
			</g>
			<g transform="translate(550,750) scale(0.27664) rotate(-25)">
				<g id="shape_10_1_57_">
					<path d="M537.464,755.846l6.69-18.382l18.382,6.69l-6.69,18.382L537.464,755.846z M539.971,754.677l14.706,5.352l5.352-14.706
						l-14.706-5.352L539.971,754.677z"/>
				</g>
			</g>
			<g transform="translate(550,850) scale(0.30576) rotate(-25)">
				<g id="shape_10_1_58_">
					<path d="M536.144,856.461l7.395-20.316l20.316,7.395l-7.395,20.316L536.144,856.461z M538.915,855.169l16.254,5.916
						l5.916-16.254l-16.254-5.916L538.915,855.169z"/>
				</g>
			</g>
			<g transform="translate(550,950) scale(0.33488) rotate(-25)">
				<g id="shape_10_1_59_">
					<path d="M534.825,957.076l8.099-22.251l22.251,8.099l-8.099,22.251L534.825,957.076z M537.859,955.661l17.802,6.48
						l6.479-17.802l-17.802-6.48L537.859,955.661z"/>
				</g>
			</g>
			<g transform="translate(650,50) scale(0.0616) rotate(-25)">
				<g id="shape_10_1_60_">
					<path d="M647.209,51.302l1.489-4.093l4.093,1.49l-1.489,4.093L647.209,51.302z M647.767,51.042l3.274,1.192l1.192-3.275
						l-3.274-1.192L647.767,51.042z"/>
				</g>
			</g>
			<g transform="translate(650,150) scale(0.08624) rotate(-25)">
				<g id="shape_10_1_61_">
					<path d="M646.092,151.822l2.086-5.73l5.731,2.086l-2.086,5.73L646.092,151.822z M646.874,151.458l4.584,1.669l1.668-4.585
						l-4.584-1.668L646.874,151.458z"/>
				</g>
			</g>
			<g transform="translate(650,250) scale(0.11088) rotate(-25)">
				<g id="shape_10_1_62_">
					<path d="M644.976,252.343l2.682-7.367l7.367,2.682l-2.682,7.367L644.976,252.343z M645.98,251.875l5.894,2.145l2.145-5.894
						l-5.893-2.145L645.98,251.875z"/>
				</g>
			</g>
			<g transform="translate(650,350) scale(0.13552) rotate(-25)">
				<g id="shape_10_1_63_">
					<path d="M643.859,352.864l3.277-9.005l9.004,3.277l-3.277,9.005L643.859,352.864z M645.087,352.291l7.204,2.622l2.622-7.204
						l-7.204-2.622L645.087,352.291z"/>
				</g>
			</g>
			<g transform="translate(650,450) scale(0.16016) rotate(-25)">
				<g id="shape_10_1_64_">
					<path d="M642.742,453.385l3.873-10.643l10.643,3.873l-3.873,10.643L642.742,453.385z M644.193,452.707l8.514,3.1l3.1-8.514
						l-8.514-3.1L644.193,452.707z"/>
				</g>
			</g>
			<g transform="translate(650,550) scale(0.1848) rotate(-25)">
				<g id="shape_10_1_65_">
					<path d="M641.626,553.905l4.469-12.279l12.279,4.469l-4.469,12.279L641.626,553.905z M643.301,553.124l9.823,3.575l3.575-9.823
						l-9.823-3.575L643.301,553.124z"/>
				</g>
			</g>
			<g transform="translate(650,650) scale(0.20944) rotate(-25)">
				<g id="shape_10_1_66_">
					<path d="M640.509,654.426l5.065-13.917l13.917,5.065l-5.065,13.917L640.509,654.426z M642.407,653.541l11.134,4.052
						l4.052-11.134l-11.134-4.052L642.407,653.541z"/>
				</g>
			</g>
			<g transform="translate(650,750) scale(0.23408) rotate(-25)">
				<g id="shape_10_1_67_">
					<path d="M639.393,754.946l5.661-15.554l15.554,5.661l-5.661,15.554L639.393,754.946z M641.514,753.957l12.443,4.529
						l4.529-12.443l-12.443-4.529L641.514,753.957z"/>
				</g>
			</g>
			<g transform="translate(650,850) scale(0.25872) rotate(-25)">
				<g id="shape_10_1_68_">
					<path d="M638.276,855.467l6.257-17.19l17.19,6.257l-6.257,17.19L638.276,855.467z M640.621,854.374l13.753,5.005l5.005-13.753
						l-13.753-5.005L640.621,854.374z"/>
				</g>
			</g>
			<g transform="translate(650,950) scale(0.28336) rotate(-25)">
				<g id="shape_10_1_69_">
					<path d="M637.159,955.987l6.854-18.828l18.828,6.854l-6.853,18.828L637.159,955.987z M639.727,954.79l15.063,5.483
						l5.482-15.063l-15.062-5.483L639.727,954.79z"/>
				</g>
			</g>
			<g transform="translate(750,50) scale(0.0504) rotate(-25)">
				<g id="shape_10_1_70_">
					<path d="M747.716,51.065l1.219-3.349l3.35,1.219l-1.219,3.349L747.716,51.065z M748.173,50.852l2.679,0.975l0.976-2.679
						l-2.679-0.975L748.173,50.852z"/>
				</g>
			</g>
			<g transform="translate(750,150) scale(0.07056) rotate(-25)">
				<g id="shape_10_1_71_">
					<path d="M746.803,151.491l1.706-4.689l4.688,1.706l-1.706,4.688L746.803,151.491z M747.442,151.193l3.75,1.365l1.365-3.751
						l-3.75-1.365L747.442,151.193z"/>
				</g>
			</g>
			<g transform="translate(750,250) scale(0.09072) rotate(-25)">
				<g id="shape_10_1_72_">
					<path d="M745.889,251.917l2.194-6.028l6.028,2.194l-2.194,6.028L745.889,251.917z M746.711,251.534l4.822,1.755l1.756-4.823
						l-4.822-1.755L746.711,251.534z"/>
				</g>
			</g>
			<g transform="translate(750,350) scale(0.11088) rotate(-25)">
				<g id="shape_10_1_73_">
					<path d="M744.976,352.343l2.682-7.367l7.367,2.682l-2.682,7.367L744.976,352.343z M745.98,351.875l5.894,2.145l2.145-5.894
						l-5.893-2.145L745.98,351.875z"/>
				</g>
			</g>
			<g transform="translate(750,450) scale(0.13104) rotate(-25)">
				<g id="shape_10_1_74_">
					<path d="M744.061,452.769l3.17-8.707l8.707,3.17l-3.17,8.707L744.061,452.769z M745.25,452.215l6.965,2.535l2.535-6.965
						l-6.965-2.535L745.25,452.215z"/>
				</g>
			</g>
			<g transform="translate(750,550) scale(0.1512) rotate(-25)">
				<g id="shape_10_1_75_">
					<path d="M743.148,553.195l3.656-10.047l10.047,3.656l-3.656,10.047L743.148,553.195z M744.519,552.556l8.037,2.926l2.926-8.037
						l-8.037-2.926L744.519,552.556z"/>
				</g>
			</g>
			<g transform="translate(750,650) scale(0.17136) rotate(-25)">
				<g id="shape_10_1_76_">
					<path d="M742.234,653.621l4.145-11.387l11.387,4.144l-4.144,11.387L742.234,653.621z M743.788,652.896l9.108,3.315l3.315-9.108
						l-9.108-3.315L743.788,652.896z"/>
				</g>
			</g>
			<g transform="translate(750,750) scale(0.19152) rotate(-25)">
				<g id="shape_10_1_77_">
					<path d="M741.321,754.047l4.632-12.726l12.726,4.632l-4.632,12.726L741.321,754.047z M743.057,753.237l10.181,3.706
						l3.706-10.181l-10.181-3.706L743.057,753.237z"/>
				</g>
			</g>
			<g transform="translate(750,850) scale(0.21168) rotate(-25)">
				<g id="shape_10_1_78_">
					<path d="M740.407,854.473l5.12-14.065l14.065,5.12l-5.12,14.065L740.407,854.473z M742.326,853.578l11.252,4.096l4.096-11.252
						l-11.252-4.096L742.326,853.578z"/>
				</g>
			</g>
			<g transform="translate(750,950) scale(0.23184) rotate(-25)">
				<g id="shape_10_1_79_">
					<path d="M739.494,954.899l5.607-15.405l15.405,5.607l-5.606,15.405L739.494,954.899z M741.596,953.919l12.323,4.485
						l4.485-12.323l-12.323-4.485L741.596,953.919z"/>
				</g>
			</g>
			<g transform="translate(850,50) scale(0.0392) rotate(-25)">
				<g id="shape_10_1_80_">
					<path d="M848.224,50.828l0.948-2.604l2.604,0.948l-0.948,2.604L848.224,50.828z M848.579,50.663l2.084,0.758l0.758-2.083
						l-2.084-0.758L848.579,50.663z"/>
				</g>
			</g>
			<g transform="translate(850,150) scale(0.05488) rotate(-25)">
				<g id="shape_10_1_81_">
					<path d="M847.513,151.16l1.327-3.646l3.648,1.327l-1.327,3.646L847.513,151.16z M848.011,150.928l2.917,1.062l1.062-2.917
						l-2.917-1.062L848.011,150.928z"/>
				</g>
			</g>
			<g transform="translate(850,250) scale(0.07056) rotate(-25)">
				<g id="shape_10_1_82_">
					<path d="M846.803,251.491l1.706-4.688l4.688,1.706l-1.706,4.688L846.803,251.491z M847.442,251.193l3.75,1.365l1.365-3.751
						l-3.75-1.365L847.442,251.193z"/>
				</g>
			</g>
			<g transform="translate(850,350) scale(0.08624) rotate(-25)">
				<g id="shape_10_1_83_">
					<path d="M846.092,351.822l2.086-5.73l5.731,2.086l-2.086,5.73L846.092,351.822z M846.874,351.458l4.584,1.669l1.668-4.585
						l-4.584-1.668L846.874,351.458z"/>
				</g>
			</g>
			<g transform="translate(850,450) scale(0.10192) rotate(-25)">
				<g id="shape_10_1_84_">
					<path d="M845.382,452.153l2.465-6.772l6.771,2.465l-2.465,6.772L845.382,452.153z M846.305,451.723l5.418,1.973l1.973-5.418
						l-5.418-1.973L846.305,451.723z"/>
				</g>
			</g>
			<g transform="translate(850,550) scale(0.1176) rotate(-25)">
				<g id="shape_10_1_85_">
					<path d="M844.671,552.485l2.844-7.815l7.815,2.844l-2.844,7.815L844.671,552.485z M845.736,551.988l6.252,2.275l2.275-6.252
						l-6.252-2.275L845.736,551.988z"/>
				</g>
			</g>
			<g transform="translate(850,650) scale(0.13328) rotate(-25)">
				<g id="shape_10_1_86_">
					<path d="M843.96,652.816l3.224-8.856l8.856,3.224l-3.224,8.856L843.96,652.816z M845.168,652.253l7.085,2.579l2.579-7.085
						l-7.085-2.579L845.168,652.253z"/>
				</g>
			</g>
			<g transform="translate(850,750) scale(0.14896) rotate(-25)">
				<g id="shape_10_1_87_">
					<path d="M843.25,753.148l3.602-9.898l9.898,3.602l-3.603,9.898L843.25,753.148z M844.6,752.519l7.919,2.882l2.882-7.919
						l-7.919-2.882L844.6,752.519z"/>
				</g>
			</g>
			<g transform="translate(850,850) scale(0.16464) rotate(-25)">
				<g id="shape_10_1_88_">
					<path d="M842.539,853.479l3.982-10.939l10.939,3.982l-3.982,10.939L842.539,853.479z M844.031,852.783l8.752,3.185l3.186-8.752
						l-8.752-3.186L844.031,852.783z"/>
				</g>
			</g>
			<g transform="translate(850,950) scale(0.18032) rotate(-25)">
				<g id="shape_10_1_89_">
					<path d="M841.829,953.81l4.36-11.981l11.981,4.36l-4.36,11.981L841.829,953.81z M843.463,953.048l9.585,3.489l3.489-9.585
						l-9.585-3.489L843.463,953.048z"/>
				</g>
			</g>
			<g transform="translate(950,50) scale(0.028) rotate(-25)">
				<g id="shape_10_1_90_">
					<path d="M948.731,50.592l0.677-1.861l1.86,0.677l-0.677,1.861L948.731,50.592z M948.985,50.473l1.488,0.542l0.541-1.488
						l-1.488-0.542L948.985,50.473z"/>
				</g>
			</g>
			<g transform="translate(950,150) scale(0.0392) rotate(-25)">
				<g id="shape_10_1_91_">
					<path d="M948.224,150.828l0.948-2.605l2.604,0.948l-0.948,2.604L948.224,150.828z M948.579,150.663l2.084,0.758l0.758-2.083
						l-2.084-0.758L948.579,150.663z"/>
				</g>
			</g>
			<g transform="translate(950,250) scale(0.0504) rotate(-25)">
				<g id="shape_10_1_92_">
					<path d="M947.716,251.065l1.219-3.349l3.35,1.219l-1.219,3.349L947.716,251.065z M948.173,250.852l2.679,0.975l0.976-2.679
						l-2.679-0.975L948.173,250.852z"/>
				</g>
			</g>
			<g transform="translate(950,350) scale(0.0616) rotate(-25)">
				<g id="shape_10_1_93_">
					<path d="M947.209,351.302l1.489-4.093l4.093,1.49l-1.489,4.093L947.209,351.302z M947.767,351.042l3.274,1.192l1.192-3.275
						l-3.274-1.192L947.767,351.042z"/>
				</g>
			</g>
			<g transform="translate(950,450) scale(0.0728) rotate(-25)">
				<g id="shape_10_1_94_">
					<path d="M946.701,451.538l1.761-4.837l4.837,1.761l-1.761,4.837L946.701,451.538z M947.361,451.23l3.869,1.408l1.408-3.869
						l-3.869-1.408L947.361,451.23z"/>
				</g>
			</g>
			<g transform="translate(950,550) scale(0.084) rotate(-25)">
				<g id="shape_10_1_95_">
					<path d="M946.193,551.775l2.031-5.582l5.582,2.031l-2.031,5.582L946.193,551.775z M946.955,551.42l4.465,1.625l1.625-4.465
						l-4.465-1.625L946.955,551.42z"/>
				</g>
			</g>
			<g transform="translate(950,650) scale(0.0952) rotate(-25)">
				<g id="shape_10_1_96_">
					<path d="M945.685,652.012l2.303-6.326l6.326,2.303l-2.303,6.326L945.685,652.012z M946.549,651.609l5.061,1.842l1.842-5.061
						l-5.061-1.842L946.549,651.609z"/>
				</g>
			</g>
			<g transform="translate(950,750) scale(0.1064) rotate(-25)">
				<g id="shape_10_1_97_">
					<path d="M945.179,752.248l2.573-7.069l7.069,2.573l-2.573,7.069L945.179,752.248z M946.143,751.799l5.656,2.059l2.059-5.656
						l-5.656-2.059L946.143,751.799z"/>
				</g>
			</g>
			<g transform="translate(950,850) scale(0.1176) rotate(-25)">
				<g id="shape_10_1_98_">
					<path d="M944.671,852.485l2.844-7.815l7.815,2.844l-2.844,7.815L944.671,852.485z M945.736,851.988l6.252,2.275l2.275-6.252
						l-6.252-2.275L945.736,851.988z"/>
				</g>
			</g>
			<g transform="translate(950,950) scale(0.1288) rotate(-25)">
				<g id="shape_10_1_99_">
					<path d="M944.163,952.722l3.115-8.559l8.559,3.115l-3.115,8.559L944.163,952.722z M945.331,952.178l6.847,2.491l2.491-6.847
						l-6.847-2.491L945.331,952.178z"/>
				</g>
			</g>
			<g transform="translate(0,0) scale(0.10752) rotate(-25)">
				<g id="shape_other_10_1">
					<path d="M-4.872,2.272l2.6-7.144l7.144,2.6l-2.6,7.144L-4.872,2.272z M-3.898,1.817l5.715,2.08l2.081-5.715l-5.715-2.08
						L-3.898,1.817z"/>
				</g>
			</g>
			<g transform="translate(0,100) scale(0.16128) rotate(-25)">
				<g id="shape_other_10_1_1_">
					<path d="M-7.309,103.408l3.9-10.717l10.717,3.9l-3.9,10.717L-7.309,103.408z M-5.847,102.727l8.573,3.12l3.12-8.573
						l-8.573-3.12L-5.847,102.727z"/>
				</g>
			</g>
			<g transform="translate(0,200) scale(0.21504) rotate(-25)">
				<g id="shape_other_10_1_2_">
					<path d="M-9.745,204.544l5.201-14.288l14.288,5.201l-5.201,14.288L-9.745,204.544z M-7.796,203.635l11.431,4.161l4.161-11.431
						l-11.431-4.161L-7.796,203.635z"/>
				</g>
			</g>
			<g transform="translate(0,300) scale(0.2688) rotate(-25)">
				<g id="shape_other_10_1_3_">
					<path d="M-12.181,305.68l6.501-17.861l17.861,6.501L5.68,312.181L-12.181,305.68z M-9.745,304.544l14.288,5.201l5.201-14.289
						l-14.288-5.201L-9.745,304.544z"/>
				</g>
			</g>
			<g transform="translate(0,400) scale(0.32256) rotate(-25)">
				<g id="shape_other_10_1_4_">
					<path d="M-14.617,406.816l7.801-21.434l21.433,7.801l-7.801,21.433L-14.617,406.816z M-11.693,405.453l17.146,6.24
						l6.241-17.146l-17.146-6.241L-11.693,405.453z"/>
				</g>
			</g>
			<g transform="translate(0,500) scale(0.37632) rotate(-25)">
				<g id="shape_other_10_1_5_">
					<path d="M-17.053,507.952l9.101-25.005l25.005,9.101l-9.101,25.005L-17.053,507.952z M-13.643,506.361l20.004,7.281
						l7.281-20.004l-20.004-7.281L-13.643,506.361z"/>
				</g>
			</g>
			<g transform="translate(0,600) scale(0.43008) rotate(-25)">
				<g id="shape_other_10_1_6_">
					<path d="M-19.489,609.088l10.401-28.577l28.577,10.401L9.088,619.489L-19.489,609.088z M-15.591,607.271l22.862,8.321
						l8.321-22.862l-22.862-8.321L-15.591,607.271z"/>
				</g>
			</g>
			<g transform="translate(0,700) scale(0.48384) rotate(-25)">
				<g id="shape_other_10_1_7_">
					<path d="M-21.925,710.224l11.701-32.149l32.149,11.702l-11.701,32.149L-21.925,710.224z M-17.541,708.179l25.72,9.361
						l9.361-25.719l-25.72-9.361L-17.541,708.179z"/>
				</g>
			</g>
			<g transform="translate(0,800) scale(0.5376) rotate(-25)">
				<g id="shape_other_10_1_8_">
					<path d="M-24.361,811.36l13.001-35.722l35.721,13.001L11.36,824.361L-24.361,811.36z M-19.489,809.088l28.577,10.401
						l10.401-28.577l-28.577-10.401L-19.489,809.088z"/>
				</g>
			</g>
			<g transform="translate(0,900) scale(0.59136) rotate(-25)">
				<g id="shape_other_10_1_9_">
					<path d="M-26.798,912.496l14.302-39.294l39.294,14.302l-14.302,39.294L-26.798,912.496z M-21.438,909.997l31.435,11.441
						l11.441-31.436l-31.435-11.441L-21.438,909.997z"/>
				</g>
			</g>
			<g transform="translate(0,1000) scale(0.64512) rotate(-25)">
				<g id="shape_other_10_1_10_">
					<path d="M-29.234,1013.632l15.602-42.865l42.866,15.602l-15.602,42.865L-29.234,1013.632z M-23.387,1010.905l34.293,12.481
						l12.481-34.292l-34.293-12.481L-23.387,1010.905z"/>
				</g>
			</g>
			<g transform="translate(100,0) scale(0.09856) rotate(-25)">
				<g id="shape_other_10_1_11_">
					<path d="M95.534,2.083l2.384-6.549l6.549,2.384l-2.384,6.549L95.534,2.083z M96.427,1.666l5.239,1.907l1.907-5.239
						l-5.239-1.907L96.427,1.666z"/>
				</g>
			</g>
			<g transform="translate(100,100) scale(0.14784) rotate(-25)">
				<g id="shape_other_10_1_12_">
					<path d="M93.301,103.124l3.575-9.823l9.823,3.575l-3.575,9.823L93.301,103.124z M94.641,102.499l7.858,2.86l2.86-7.858
						l-7.858-2.86L94.641,102.499z"/>
				</g>
			</g>
			<g transform="translate(100,200) scale(0.19712) rotate(-25)">
				<g id="shape_other_10_1_13_">
					<path d="M91.067,204.166l4.767-13.098l13.098,4.767l-4.767,13.098L91.067,204.166z M92.854,203.332l10.478,3.814l3.814-10.478
						l-10.478-3.814L92.854,203.332z"/>
				</g>
			</g>
			<g transform="translate(100,300) scale(0.2464) rotate(-25)">
				<g id="shape_other_10_1_14_">
					<path d="M88.835,305.207l5.959-16.372l16.372,5.959l-5.959,16.372L88.835,305.207z M91.067,304.166l13.098,4.767l4.767-13.098
						l-13.098-4.767L91.067,304.166z"/>
				</g>
			</g>
			<g transform="translate(100,400) scale(0.29568) rotate(-25)">
				<g id="shape_other_10_1_15_">
					<path d="M86.601,406.248l7.151-19.647l19.647,7.151l-7.151,19.646L86.601,406.248z M89.281,404.998l15.718,5.721l5.721-15.717
						l-15.718-5.721L89.281,404.998z"/>
				</g>
			</g>
			<g transform="translate(100,500) scale(0.34496) rotate(-25)">
				<g id="shape_other_10_1_16_">
					<path d="M84.368,507.289l8.342-22.921l22.921,8.343l-8.342,22.921L84.368,507.289z M87.495,505.831l18.337,6.675l6.674-18.337
						l-18.337-6.675L87.495,505.831z"/>
				</g>
			</g>
			<g transform="translate(100,600) scale(0.39424) rotate(-25)">
				<g id="shape_other_10_1_17_">
					<path d="M82.135,608.331l9.535-26.196l26.196,9.534l-9.535,26.196L82.135,608.331z M85.708,606.664l20.957,7.628l7.627-20.956
						l-20.957-7.628L85.708,606.664z"/>
				</g>
			</g>
			<g transform="translate(100,700) scale(0.44352) rotate(-25)">
				<g id="shape_other_10_1_18_">
					<path d="M79.902,709.372l10.726-29.471l29.47,10.727l-10.726,29.471L79.902,709.372z M83.921,707.498l23.576,8.581
						l8.581-23.577l-23.576-8.581L83.921,707.498z"/>
				</g>
			</g>
			<g transform="translate(100,800) scale(0.4928) rotate(-25)">
				<g id="shape_other_10_1_19_">
					<path d="M77.669,810.413l11.918-32.744l32.745,11.918l-11.918,32.744L77.669,810.413z M82.135,808.331l26.196,9.534
						l9.535-26.196l-26.196-9.534L82.135,808.331z"/>
				</g>
			</g>
			<g transform="translate(100,900) scale(0.54208) rotate(-25)">
				<g id="shape_other_10_1_20_">
					<path d="M75.436,911.455l13.11-36.02l36.019,13.109l-13.11,36.02L75.436,911.455z M80.348,909.164l28.815,10.487l10.488-28.815
						l-28.815-10.487L80.348,909.164z"/>
				</g>
			</g>
			<g transform="translate(100,1000) scale(0.59136) rotate(-25)">
				<g id="shape_other_10_1_21_">
					<path d="M73.202,1012.496l14.302-39.294l39.294,14.302l-14.302,39.294L73.202,1012.496z M78.562,1009.997l31.435,11.441
						l11.441-31.436l-31.435-11.441L78.562,1009.997z"/>
				</g>
			</g>
			<g transform="translate(200,0) scale(0.0896) rotate(-25)">
				<g id="shape_other_10_1_22_">
					<path d="M195.94,1.894l2.167-5.954l5.954,2.166l-2.167,5.954L195.94,1.894z M196.752,1.515l4.763,1.733l1.733-4.763
						l-4.763-1.733L196.752,1.515z"/>
				</g>
			</g>
			<g transform="translate(200,100) scale(0.1344) rotate(-25)">
				<g id="shape_other_10_1_23_">
					<path d="M193.91,102.84l3.25-8.93l8.93,3.25l-3.25,8.93L193.91,102.84z M195.128,102.272l7.144,2.6l2.6-7.144l-7.144-2.6
						L195.128,102.272z"/>
				</g>
			</g>
			<g transform="translate(200,200) scale(0.1792) rotate(-25)">
				<g id="shape_other_10_1_24_">
					<path d="M191.879,203.787l4.334-11.907l11.907,4.334l-4.334,11.907L191.879,203.787z M193.503,203.029l9.526,3.467l3.467-9.526
						l-9.526-3.467L193.503,203.029z"/>
				</g>
			</g>
			<g transform="translate(200,300) scale(0.224) rotate(-25)">
				<g id="shape_other_10_1_25_">
					<path d="M189.849,304.733l5.417-14.884l14.884,5.417l-5.417,14.884L189.849,304.733z M191.879,303.787l11.907,4.334
						l4.334-11.907l-11.907-4.334L191.879,303.787z"/>
				</g>
			</g>
			<g transform="translate(200,400) scale(0.2688) rotate(-25)">
				<g id="shape_other_10_1_26_">
					<path d="M187.819,405.68l6.5-17.86l17.861,6.501l-6.5,17.861L187.819,405.68z M190.255,404.544l14.289,5.2l5.201-14.288
						l-14.289-5.201L190.255,404.544z"/>
				</g>
			</g>
			<g transform="translate(200,500) scale(0.3136) rotate(-25)">
				<g id="shape_other_10_1_27_">
					<path d="M185.789,506.627l7.584-20.838l20.837,7.584l-7.584,20.838L185.789,506.627z M188.631,505.302l16.67,6.067
						l6.067-16.671l-16.67-6.067L188.631,505.302z"/>
				</g>
			</g>
			<g transform="translate(200,600) scale(0.3584) rotate(-25)">
				<g id="shape_other_10_1_28_">
					<path d="M183.759,607.573l8.668-23.814l23.814,8.668l-8.668,23.814L183.759,607.573z M187.007,606.059l19.051,6.935
						l6.934-19.052l-19.051-6.935L187.007,606.059z"/>
				</g>
			</g>
			<g transform="translate(200,700) scale(0.4032) rotate(-25)">
				<g id="shape_other_10_1_29_">
					<path d="M181.729,708.52l9.751-26.791l26.791,9.752l-9.751,26.791L181.729,708.52z M185.383,706.816l21.433,7.801l7.801-21.434
						l-21.433-7.801L185.383,706.816z"/>
				</g>
			</g>
			<g transform="translate(200,800) scale(0.448) rotate(-25)">
				<g id="shape_other_10_1_30_">
					<path d="M179.699,809.467l10.835-29.769l29.768,10.835l-10.835,29.769L179.699,809.467z M183.759,807.573l23.814,8.668
						l8.668-23.814l-23.814-8.668L183.759,807.573z"/>
				</g>
			</g>
			<g transform="translate(200,900) scale(0.4928) rotate(-25)">
				<g id="shape_other_10_1_31_">
					<path d="M177.669,910.413l11.918-32.744l32.745,11.918l-11.918,32.744L177.669,910.413z M182.135,908.331l26.196,9.534
						l9.535-26.196l-26.196-9.534L182.135,908.331z"/>
				</g>
			</g>
			<g transform="translate(200,1000) scale(0.5376) rotate(-25)">
				<g id="shape_other_10_1_32_">
					<path d="M175.639,1011.36l13.001-35.722l35.721,13.001l-13.001,35.722L175.639,1011.36z M180.511,1009.088l28.577,10.401
						l10.401-28.577l-28.577-10.401L180.511,1009.088z"/>
				</g>
			</g>
			<g transform="translate(300,0) scale(0.08064) rotate(-25)">
				<g id="shape_other_10_1_33_">
					<path d="M296.346,1.704l1.95-5.358l5.358,1.95l-1.95,5.358L296.346,1.704z M297.077,1.363l4.287,1.56l1.56-4.287l-4.287-1.56
						L297.077,1.363z"/>
				</g>
			</g>
			<g transform="translate(300,100) scale(0.12096) rotate(-25)">
				<g id="shape_other_10_1_34_">
					<path d="M294.519,102.556l2.925-8.038l8.038,2.925l-2.925,8.038L294.519,102.556z M295.615,102.045l6.43,2.34l2.34-6.43
						l-6.43-2.34L295.615,102.045z"/>
				</g>
			</g>
			<g transform="translate(300,200) scale(0.16128) rotate(-25)">
				<g id="shape_other_10_1_35_">
					<path d="M292.691,203.408l3.9-10.717l10.717,3.9l-3.9,10.717L292.691,203.408z M294.153,202.727l8.573,3.12l3.12-8.573
						l-8.573-3.12L294.153,202.727z"/>
				</g>
			</g>
			<g transform="translate(300,300) scale(0.2016) rotate(-25)">
				<g id="shape_other_10_1_36_">
					<path d="M290.864,304.26l4.876-13.396l13.396,4.876l-4.876,13.396L290.864,304.26z M292.691,303.408l10.717,3.9l3.9-10.717
						l-10.717-3.9L292.691,303.408z"/>
				</g>
			</g>
			<g transform="translate(300,400) scale(0.24192) rotate(-25)">
				<g id="shape_other_10_1_37_">
					<path d="M289.037,405.112l5.851-16.075l16.075,5.851l-5.851,16.075L289.037,405.112z M291.23,404.09l12.86,4.681l4.681-12.86
						l-12.86-4.68L291.23,404.09z"/>
				</g>
			</g>
			<g transform="translate(300,500) scale(0.28224) rotate(-25)">
				<g id="shape_other_10_1_38_">
					<path d="M287.21,505.964l6.826-18.754l18.754,6.826l-6.826,18.754L287.21,505.964z M289.768,504.772l15.003,5.46l5.46-15.003
						l-15.002-5.46L289.768,504.772z"/>
				</g>
			</g>
			<g transform="translate(300,600) scale(0.32256) rotate(-25)">
				<g id="shape_other_10_1_39_">
					<path d="M285.383,606.816l7.801-21.434l21.433,7.801l-7.801,21.434L285.383,606.816z M288.307,605.453l17.146,6.24
						l6.241-17.146l-17.146-6.24L288.307,605.453z"/>
				</g>
			</g>
			<g transform="translate(300,700) scale(0.36288) rotate(-25)">
				<g id="shape_other_10_1_40_">
					<path d="M283.556,707.668l8.776-24.112l24.112,8.776l-8.776,24.112L283.556,707.668z M286.845,706.135l19.29,7.021l7.021-19.29
						l-19.29-7.021L286.845,706.135z"/>
				</g>
			</g>
			<g transform="translate(300,800) scale(0.4032) rotate(-25)">
				<g id="shape_other_10_1_41_">
					<path d="M281.729,808.519l9.751-26.791l26.791,9.752l-9.752,26.791L281.729,808.519z M285.383,806.816l21.434,7.801
						l7.801-21.434l-21.433-7.801L285.383,806.816z"/>
				</g>
			</g>
			<g transform="translate(300,900) scale(0.44352) rotate(-25)">
				<g id="shape_other_10_1_42_">
					<path d="M279.902,909.372l10.726-29.471l29.471,10.727l-10.727,29.471L279.902,909.372z M283.921,907.498l23.577,8.581
						l8.58-23.577l-23.576-8.581L283.921,907.498z"/>
				</g>
			</g>
			<g transform="translate(300,1000) scale(0.48384) rotate(-25)">
				<g id="shape_other_10_1_43_">
					<path d="M278.075,1010.224l11.701-32.149l32.15,11.702l-11.702,32.149L278.075,1010.224z M282.46,1008.179l25.72,9.361
						l9.36-25.719l-25.719-9.361L282.46,1008.179z"/>
				</g>
			</g>
			<g transform="translate(400,0) scale(0.07168) rotate(-25)">
				<g id="shape_other_10_1_44_">
					<path d="M396.752,1.515l1.733-4.763l4.763,1.733l-1.733,4.763L396.752,1.515z M397.401,1.212l3.81,1.387l1.387-3.81
						l-3.811-1.387L397.401,1.212z"/>
				</g>
			</g>
			<g transform="translate(400,100) scale(0.10752) rotate(-25)">
				<g id="shape_other_10_1_45_">
					<path d="M395.128,102.272l2.6-7.144l7.145,2.6l-2.6,7.144L395.128,102.272z M396.103,101.817l5.715,2.08l2.08-5.715
						l-5.715-2.08L396.103,101.817z"/>
				</g>
			</g>
			<g transform="translate(400,200) scale(0.14336) rotate(-25)">
				<g id="shape_other_10_1_46_">
					<path d="M393.504,203.029l3.467-9.526l9.525,3.467l-3.467,9.526L393.504,203.029z M394.803,202.423l7.621,2.774l2.773-7.621
						l-7.621-2.774L394.803,202.423z"/>
				</g>
			</g>
			<g transform="translate(400,300) scale(0.1792) rotate(-25)">
				<g id="shape_other_10_1_47_">
					<path d="M391.88,303.787l4.333-11.907l11.907,4.334l-4.333,11.907L391.88,303.787z M393.504,303.029l9.525,3.467l3.467-9.526
						l-9.525-3.467L393.504,303.029z"/>
				</g>
			</g>
			<g transform="translate(400,400) scale(0.21504) rotate(-25)">
				<g id="shape_other_10_1_48_">
					<path d="M390.256,404.544l5.2-14.289l14.288,5.201l-5.2,14.288L390.256,404.544z M392.204,403.635l11.431,4.161l4.161-11.431
						l-11.431-4.161L392.204,403.635z"/>
				</g>
			</g>
			<g transform="translate(400,500) scale(0.25088) rotate(-25)">
				<g id="shape_other_10_1_49_">
					<path d="M388.631,505.302l6.067-16.671l16.671,6.067l-6.067,16.671L388.631,505.302z M390.905,504.241l13.336,4.853
						l4.854-13.336l-13.336-4.854L390.905,504.241z"/>
				</g>
			</g>
			<g transform="translate(400,600) scale(0.28672) rotate(-25)">
				<g id="shape_other_10_1_50_">
					<path d="M387.007,606.059l6.935-19.052l19.052,6.935l-6.935,19.052L387.007,606.059z M389.605,604.847l15.241,5.548
						l5.548-15.241l-15.241-5.548L389.605,604.847z"/>
				</g>
			</g>
			<g transform="translate(400,700) scale(0.32256) rotate(-25)">
				<g id="shape_other_10_1_51_">
					<path d="M385.383,706.816l7.801-21.434l21.434,7.801l-7.801,21.434L385.383,706.816z M388.307,705.453l17.146,6.24l6.24-17.147
						l-17.146-6.24L388.307,705.453z"/>
				</g>
			</g>
			<g transform="translate(400,800) scale(0.3584) rotate(-25)">
				<g id="shape_other_10_1_52_">
					<path d="M383.759,807.573l8.668-23.814l23.814,8.668l-8.668,23.814L383.759,807.573z M387.007,806.059l19.052,6.935
						l6.935-19.052l-19.052-6.935L387.007,806.059z"/>
				</g>
			</g>
			<g transform="translate(400,900) scale(0.39424) rotate(-25)">
				<g id="shape_other_10_1_53_">
					<path d="M382.135,908.331l9.534-26.196l26.196,9.534l-9.534,26.196L382.135,908.331z M385.708,906.664l20.956,7.628
						l7.628-20.956l-20.956-7.628L385.708,906.664z"/>
				</g>
			</g>
			<g transform="translate(400,1000) scale(0.43008) rotate(-25)">
				<g id="shape_other_10_1_54_">
					<path d="M380.511,1009.088l10.401-28.577l28.577,10.401l-10.401,28.577L380.511,1009.088z M384.408,1007.271l22.862,8.321
						l8.321-22.862l-22.862-8.321L384.408,1007.271z"/>
				</g>
			</g>
			<g transform="translate(500,0) scale(0.06272) rotate(-25)">
				<g id="shape_other_10_1_55_">
					<path d="M497.158,1.325l1.517-4.168l4.167,1.517l-1.517,4.168L497.158,1.325z M497.727,1.06l3.334,1.214l1.213-3.334
						l-3.334-1.214L497.727,1.06z"/>
				</g>
			</g>
			<g transform="translate(500,100) scale(0.09408) rotate(-25)">
				<g id="shape_other_10_1_56_">
					<path d="M495.736,101.988l2.275-6.251l6.252,2.275l-2.275,6.251L495.736,101.988z M496.59,101.59l5.001,1.82l1.819-5.001
						l-5.001-1.82L496.59,101.59z"/>
				</g>
			</g>
			<g transform="translate(500,200) scale(0.12544) rotate(-25)">
				<g id="shape_other_10_1_57_">
					<path d="M494.315,202.65l3.034-8.335l8.335,3.034l-3.034,8.335L494.315,202.65z M495.452,202.121l6.668,2.427l2.428-6.668
						l-6.668-2.427L495.452,202.121z"/>
				</g>
			</g>
			<g transform="translate(500,300) scale(0.1568) rotate(-25)">
				<g id="shape_other_10_1_58_">
					<path d="M492.895,303.314l3.792-10.419l10.419,3.792l-3.792,10.419L492.895,303.314z M494.315,302.651l8.335,3.034l3.034-8.335
						l-8.335-3.034L494.315,302.651z"/>
				</g>
			</g>
			<g transform="translate(500,400) scale(0.18816) rotate(-25)">
				<g id="shape_other_10_1_59_">
					<path d="M491.474,403.976l4.551-12.502l12.502,4.551l-4.551,12.502L491.474,403.976z M493.179,403.181l10.002,3.641
						l3.641-10.002l-10.002-3.641L493.179,403.181z"/>
				</g>
			</g>
			<g transform="translate(500,500) scale(0.21952) rotate(-25)">
				<g id="shape_other_10_1_60_">
					<path d="M490.053,504.639l5.309-14.586l14.586,5.309l-5.309,14.586L490.053,504.639z M492.042,503.711l11.669,4.247
						l4.247-11.669l-11.669-4.247L492.042,503.711z"/>
				</g>
			</g>
			<g transform="translate(500,600) scale(0.25088) rotate(-25)">
				<g id="shape_other_10_1_61_">
					<path d="M488.631,605.302l6.067-16.671l16.671,6.067l-6.067,16.671L488.631,605.302z M490.905,604.241l13.336,4.854
						l4.854-13.336l-13.336-4.853L490.905,604.241z"/>
				</g>
			</g>
			<g transform="translate(500,700) scale(0.28224) rotate(-25)">
				<g id="shape_other_10_1_62_">
					<path d="M487.21,705.964l6.826-18.754l18.754,6.826l-6.826,18.754L487.21,705.964z M489.769,704.771l15.003,5.46l5.46-15.003
						l-15.003-5.46L489.769,704.771z"/>
				</g>
			</g>
			<g transform="translate(500,800) scale(0.3136) rotate(-25)">
				<g id="shape_other_10_1_63_">
					<path d="M485.789,806.627l7.584-20.838l20.838,7.584l-7.584,20.838L485.789,806.627z M488.631,805.302l16.671,6.067
						l6.067-16.671l-16.671-6.067L488.631,805.302z"/>
				</g>
			</g>
			<g transform="translate(500,900) scale(0.34496) rotate(-25)">
				<g id="shape_other_10_1_64_">
					<path d="M484.368,907.289l8.343-22.921l22.921,8.343l-8.343,22.921L484.368,907.289z M487.494,905.831l18.337,6.675
						l6.675-18.337l-18.337-6.675L487.494,905.831z"/>
				</g>
			</g>
			<g transform="translate(500,1000) scale(0.37632) rotate(-25)">
				<g id="shape_other_10_1_65_">
					<path d="M482.947,1007.952l9.101-25.005l25.005,9.101l-9.101,25.005L482.947,1007.952z M486.357,1006.361l20.004,7.281
						l7.281-20.004l-20.004-7.281L486.357,1006.361z"/>
				</g>
			</g>
			<g transform="translate(600,0) scale(0.05376) rotate(-25)">
				<g id="shape_other_10_1_66_">
					<path d="M597.563,1.136l1.301-3.572l3.572,1.3l-1.301,3.572L597.563,1.136z M598.051,0.909l2.858,1.04l1.04-2.857l-2.858-1.04
						L598.051,0.909z"/>
				</g>
			</g>
			<g transform="translate(600,100) scale(0.08064) rotate(-25)">
				<g id="shape_other_10_1_67_">
					<path d="M596.346,101.704l1.95-5.358l5.358,1.95l-1.95,5.358L596.346,101.704z M597.076,101.363l4.287,1.56l1.56-4.287
						l-4.287-1.56L597.076,101.363z"/>
				</g>
			</g>
			<g transform="translate(600,200) scale(0.10752) rotate(-25)">
				<g id="shape_other_10_1_68_">
					<path d="M595.128,202.272l2.601-7.144l7.144,2.6l-2.601,7.144L595.128,202.272z M596.102,201.817l5.715,2.081l2.08-5.715
						l-5.715-2.081L596.102,201.817z"/>
				</g>
			</g>
			<g transform="translate(600,300) scale(0.1344) rotate(-25)">
				<g id="shape_other_10_1_69_">
					<path d="M593.909,302.84l3.251-8.93l8.931,3.25l-3.251,8.93L593.909,302.84z M595.128,302.272l7.144,2.6l2.601-7.144
						l-7.144-2.6L595.128,302.272z"/>
				</g>
			</g>
			<g transform="translate(600,400) scale(0.16128) rotate(-25)">
				<g id="shape_other_10_1_70_">
					<path d="M592.691,403.408l3.9-10.717l10.717,3.9l-3.9,10.717L592.691,403.408z M594.153,402.727l8.573,3.12l3.12-8.573
						l-8.573-3.12L594.153,402.727z"/>
				</g>
			</g>
			<g transform="translate(600,500) scale(0.18816) rotate(-25)">
				<g id="shape_other_10_1_71_">
					<path d="M591.474,503.976l4.551-12.502l12.502,4.551l-4.551,12.502L591.474,503.976z M593.179,503.181l10.002,3.641
						l3.641-10.002l-10.002-3.641L593.179,503.181z"/>
				</g>
			</g>
			<g transform="translate(600,600) scale(0.21504) rotate(-25)">
				<g id="shape_other_10_1_72_">
					<path d="M590.256,604.544l5.2-14.288l14.288,5.2l-5.2,14.288L590.256,604.544z M592.204,603.635l11.431,4.161l4.161-11.431
						l-11.431-4.161L592.204,603.635z"/>
				</g>
			</g>
			<g transform="translate(600,700) scale(0.24192) rotate(-25)">
				<g id="shape_other_10_1_73_">
					<path d="M589.037,705.112l5.851-16.075l16.075,5.851l-5.851,16.075L589.037,705.112z M591.229,704.09l12.86,4.681l4.681-12.86
						l-12.86-4.681L591.229,704.09z"/>
				</g>
			</g>
			<g transform="translate(600,800) scale(0.2688) rotate(-25)">
				<g id="shape_other_10_1_74_">
					<path d="M587.819,805.68l6.501-17.86l17.86,6.501l-6.501,17.86L587.819,805.68z M590.256,804.544l14.288,5.2l5.2-14.288
						l-14.288-5.2L590.256,804.544z"/>
				</g>
			</g>
			<g transform="translate(600,900) scale(0.29568) rotate(-25)">
				<g id="shape_other_10_1_75_">
					<path d="M586.602,906.248l7.15-19.646l19.646,7.15l-7.15,19.646L586.602,906.248z M589.281,904.998l15.717,5.721l5.721-15.717
						l-15.717-5.721L589.281,904.998z"/>
				</g>
			</g>
			<g transform="translate(600,1000) scale(0.32256) rotate(-25)">
				<g id="shape_other_10_1_76_">
					<path d="M585.383,1006.816l7.801-21.434l21.434,7.801l-7.801,21.434L585.383,1006.816z M588.307,1005.453l17.146,6.24
						l6.24-17.147l-17.146-6.24L588.307,1005.453z"/>
				</g>
			</g>
			<g transform="translate(700,0) scale(0.0448) rotate(-25)">
				<g id="shape_other_10_1_77_">
					<path d="M697.97,0.947l1.084-2.977l2.977,1.083l-1.084,2.977L697.97,0.947z M698.376,0.757l2.382,0.867l0.866-2.381
						l-2.382-0.867L698.376,0.757z"/>
				</g>
			</g>
			<g transform="translate(700,100) scale(0.0672) rotate(-25)">
				<g id="shape_other_10_1_78_">
					<path d="M696.955,101.42l1.625-4.465l4.465,1.625l-1.625,4.465L696.955,101.42z M697.563,101.136l3.572,1.3l1.301-3.572
						l-3.572-1.3L697.563,101.136z"/>
				</g>
			</g>
			<g transform="translate(700,200) scale(0.0896) rotate(-25)">
				<g id="shape_other_10_1_79_">
					<path d="M695.94,201.894l2.167-5.954l5.954,2.167l-2.167,5.954L695.94,201.894z M696.752,201.515l4.763,1.733l1.733-4.763
						l-4.763-1.733L696.752,201.515z"/>
				</g>
			</g>
			<g transform="translate(700,300) scale(0.112) rotate(-25)">
				<g id="shape_other_10_1_80_">
					<path d="M694.925,302.367l2.709-7.442l7.441,2.708l-2.709,7.442L694.925,302.367z M695.94,301.894l5.954,2.167l2.167-5.954
						l-5.954-2.167L695.94,301.894z"/>
				</g>
			</g>
			<g transform="translate(700,400) scale(0.1344) rotate(-25)">
				<g id="shape_other_10_1_81_">
					<path d="M693.909,402.84l3.251-8.93l8.931,3.251l-3.251,8.931L693.909,402.84z M695.128,402.273l7.144,2.6l2.601-7.145
						l-7.144-2.6L695.128,402.273z"/>
				</g>
			</g>
			<g transform="translate(700,500) scale(0.1568) rotate(-25)">
				<g id="shape_other_10_1_82_">
					<path d="M692.894,503.314l3.792-10.419l10.419,3.792l-3.792,10.419L692.894,503.314z M694.315,502.65l8.335,3.034l3.034-8.335
						l-8.335-3.034L694.315,502.65z"/>
				</g>
			</g>
			<g transform="translate(700,600) scale(0.1792) rotate(-25)">
				<g id="shape_other_10_1_83_">
					<path d="M691.88,603.787l4.333-11.907l11.907,4.333l-4.333,11.907L691.88,603.787z M693.504,603.029l9.525,3.467l3.467-9.525
						l-9.525-3.467L693.504,603.029z"/>
				</g>
			</g>
			<g transform="translate(700,700) scale(0.2016) rotate(-25)">
				<g id="shape_other_10_1_84_">
					<path d="M690.864,704.26l4.876-13.396l13.396,4.876l-4.876,13.395L690.864,704.26z M692.691,703.408l10.717,3.9l3.9-10.717
						l-10.717-3.9L692.691,703.408z"/>
				</g>
			</g>
			<g transform="translate(700,800) scale(0.224) rotate(-25)">
				<g id="shape_other_10_1_85_">
					<path d="M689.85,804.733l5.417-14.884l14.884,5.417l-5.417,14.884L689.85,804.733z M691.88,803.787l11.907,4.333l4.333-11.907
						l-11.907-4.333L691.88,803.787z"/>
				</g>
			</g>
			<g transform="translate(700,900) scale(0.2464) rotate(-25)">
				<g id="shape_other_10_1_86_">
					<path d="M688.834,905.207l5.959-16.373l16.373,5.959l-5.959,16.373L688.834,905.207z M691.067,904.165l13.098,4.768
						l4.768-13.098l-13.098-4.768L691.067,904.165z"/>
				</g>
			</g>
			<g transform="translate(700,1000) scale(0.2688) rotate(-25)">
				<g id="shape_other_10_1_87_">
					<path d="M687.819,1005.68l6.501-17.86l17.86,6.501l-6.501,17.86L687.819,1005.68z M690.256,1004.544l14.288,5.2l5.2-14.288
						l-14.288-5.2L690.256,1004.544z"/>
				</g>
			</g>
			<g transform="translate(800,0) scale(0.03584) rotate(-25)">
				<g id="shape_other_10_1_88_">
					<path d="M798.376,0.757l0.866-2.381l2.382,0.867l-0.866,2.381L798.376,0.757z M798.701,0.606l1.904,0.693l0.693-1.905
						l-1.904-0.693L798.701,0.606z"/>
				</g>
			</g>
			<g transform="translate(800,100) scale(0.05376) rotate(-25)">
				<g id="shape_other_10_1_89_">
					<path d="M797.563,101.136l1.301-3.572l3.572,1.3l-1.301,3.572L797.563,101.136z M798.051,100.909l2.858,1.04l1.04-2.857
						l-2.858-1.04L798.051,100.909z"/>
				</g>
			</g>
			<g transform="translate(800,200) scale(0.07168) rotate(-25)">
				<g id="shape_other_10_1_90_">
					<path d="M796.752,201.515l1.733-4.763l4.763,1.733l-1.733,4.763L796.752,201.515z M797.401,201.212l3.811,1.387l1.387-3.811
						l-3.81-1.387L797.401,201.212z"/>
				</g>
			</g>
			<g transform="translate(800,300) scale(0.0896) rotate(-25)">
				<g id="shape_other_10_1_91_">
					<path d="M795.94,301.894l2.167-5.954l5.954,2.167l-2.167,5.954L795.94,301.894z M796.752,301.515l4.763,1.733l1.733-4.763
						l-4.763-1.733L796.752,301.515z"/>
				</g>
			</g>
			<g transform="translate(800,400) scale(0.10752) rotate(-25)">
				<g id="shape_other_10_1_92_">
					<path d="M795.128,402.273l2.601-7.145l7.144,2.6l-2.601,7.145L795.128,402.273z M796.102,401.817l5.715,2.08l2.08-5.715
						l-5.715-2.08L796.102,401.817z"/>
				</g>
			</g>
			<g transform="translate(800,500) scale(0.12544) rotate(-25)">
				<g id="shape_other_10_1_93_">
					<path d="M794.315,502.65l3.034-8.335l8.335,3.034l-3.034,8.335L794.315,502.65z M795.452,502.12l6.668,2.428l2.428-6.668
						l-6.668-2.428L795.452,502.12z"/>
				</g>
			</g>
			<g transform="translate(800,600) scale(0.14336) rotate(-25)">
				<g id="shape_other_10_1_94_">
					<path d="M793.504,603.029l3.467-9.525l9.525,3.467l-3.467,9.525L793.504,603.029z M794.803,602.424l7.621,2.773l2.773-7.621
						l-7.621-2.773L794.803,602.424z"/>
				</g>
			</g>
			<g transform="translate(800,700) scale(0.16128) rotate(-25)">
				<g id="shape_other_10_1_95_">
					<path d="M792.691,703.408l3.9-10.717l10.717,3.9l-3.9,10.717L792.691,703.408z M794.153,702.727l8.573,3.12l3.12-8.573
						l-8.573-3.12L794.153,702.727z"/>
				</g>
			</g>
			<g transform="translate(800,800) scale(0.1792) rotate(-25)">
				<g id="shape_other_10_1_96_">
					<path d="M791.88,803.787l4.333-11.907l11.907,4.333l-4.333,11.907L791.88,803.787z M793.504,803.029l9.525,3.467l3.467-9.525
						l-9.525-3.467L793.504,803.029z"/>
				</g>
			</g>
			<g transform="translate(800,900) scale(0.19712) rotate(-25)">
				<g id="shape_other_10_1_97_">
					<path d="M791.067,904.165l4.768-13.098l13.098,4.768l-4.768,13.098L791.067,904.165z M792.853,903.332l10.479,3.814
						l3.815-10.479l-10.478-3.814L792.853,903.332z"/>
				</g>
			</g>
			<g transform="translate(800,1000) scale(0.21504) rotate(-25)">
				<g id="shape_other_10_1_98_">
					<path d="M790.256,1004.544l5.2-14.288l14.288,5.2l-5.2,14.288L790.256,1004.544z M792.204,1003.635l11.431,4.161l4.161-11.431
						l-11.431-4.161L792.204,1003.635z"/>
				</g>
			</g>
			<g transform="translate(900,0) scale(0.02688) rotate(-25)">
				<g id="shape_other_10_1_99_">
					<path d="M898.782,0.568l0.649-1.786l1.786,0.65l-0.649,1.786L898.782,0.568z M899.025,0.455l1.429,0.52l0.521-1.429
						l-1.429-0.52L899.025,0.455z"/>
				</g>
			</g>
			<g transform="translate(900,100) scale(0.04032) rotate(-25)">
				<g id="shape_other_10_1_100_">
					<path d="M898.173,100.852l0.975-2.679l2.679,0.975l-0.976,2.679L898.173,100.852z M898.538,100.682l2.143,0.78l0.78-2.144
						l-2.143-0.78L898.538,100.682z"/>
				</g>
			</g>
			<g transform="translate(900,200) scale(0.05376) rotate(-25)">
				<g id="shape_other_10_1_101_">
					<path d="M897.563,201.136l1.301-3.572l3.572,1.3l-1.301,3.572L897.563,201.136z M898.051,200.909l2.858,1.04l1.04-2.857
						l-2.858-1.04L898.051,200.909z"/>
				</g>
			</g>
			<g transform="translate(900,300) scale(0.0672) rotate(-25)">
				<g id="shape_other_10_1_102_">
					<path d="M896.955,301.42l1.625-4.465l4.465,1.625l-1.625,4.465L896.955,301.42z M897.563,301.136l3.572,1.3l1.301-3.572
						l-3.572-1.3L897.563,301.136z"/>
				</g>
			</g>
			<g transform="translate(900,400) scale(0.08064) rotate(-25)">
				<g id="shape_other_10_1_103_">
					<path d="M896.346,401.704l1.95-5.358l5.358,1.95l-1.95,5.358L896.346,401.704z M897.076,401.363l4.287,1.56l1.56-4.287
						l-4.287-1.561L897.076,401.363z"/>
				</g>
			</g>
			<g transform="translate(900,500) scale(0.09408) rotate(-25)">
				<g id="shape_other_10_1_104_">
					<path d="M895.736,501.988l2.275-6.252l6.252,2.275l-2.275,6.252L895.736,501.988z M896.59,501.591l5.001,1.819l1.819-5.001
						l-5.001-1.819L896.59,501.591z"/>
				</g>
			</g>
			<g transform="translate(900,600) scale(0.10752) rotate(-25)">
				<g id="shape_other_10_1_105_">
					<path d="M895.128,602.273l2.601-7.145l7.144,2.6l-2.601,7.145L895.128,602.273z M896.102,601.817l5.715,2.08l2.08-5.715
						l-5.715-2.08L896.102,601.817z"/>
				</g>
			</g>
			<g transform="translate(900,700) scale(0.12096) rotate(-25)">
				<g id="shape_other_10_1_106_">
					<path d="M894.519,702.556l2.926-8.037l8.037,2.926l-2.926,8.037L894.519,702.556z M895.615,702.045l6.43,2.34l2.34-6.43
						l-6.43-2.34L895.615,702.045z"/>
				</g>
			</g>
			<g transform="translate(900,800) scale(0.1344) rotate(-25)">
				<g id="shape_other_10_1_107_">
					<path d="M893.909,802.84l3.251-8.931l8.931,3.251l-3.251,8.931L893.909,802.84z M895.128,802.273l7.144,2.6l2.601-7.145
						l-7.144-2.6L895.128,802.273z"/>
				</g>
			</g>
			<g transform="translate(900,900) scale(0.14784) rotate(-25)">
				<g id="shape_other_10_1_108_">
					<path d="M893.301,903.124l3.575-9.823l9.823,3.575l-3.575,9.823L893.301,903.124z M894.641,902.499l7.858,2.86l2.86-7.858
						l-7.858-2.86L894.641,902.499z"/>
				</g>
			</g>
			<g transform="translate(900,1000) scale(0.16128) rotate(-25)">
				<g id="shape_other_10_1_109_">
					<path d="M892.691,1003.408l3.9-10.717l10.717,3.9l-3.9,10.717L892.691,1003.408z M894.153,1002.727l8.573,3.12l3.12-8.573
						l-8.573-3.12L894.153,1002.727z"/>
				</g>
			</g>
			<g transform="translate(1000,0) scale(0.01792) rotate(-25)">
				<g id="shape_other_10_1_110_">
					<path d="M999.188,0.379l0.434-1.191l1.191,0.433l-0.434,1.191L999.188,0.379z M999.351,0.303l0.952,0.347l0.347-0.952
						l-0.952-0.347L999.351,0.303z"/>
				</g>
			</g>
			<g transform="translate(1000,100) scale(0.02688) rotate(-25)">
				<g id="shape_other_10_1_111_">
					<path d="M998.782,100.568l0.649-1.786l1.786,0.65l-0.649,1.786L998.782,100.568z M999.025,100.455l1.429,0.52l0.521-1.429
						l-1.429-0.52L999.025,100.455z"/>
				</g>
			</g>
			<g transform="translate(1000,200) scale(0.03584) rotate(-25)">
				<g id="shape_other_10_1_112_">
					<path d="M998.376,200.757l0.866-2.381l2.382,0.867l-0.866,2.381L998.376,200.757z M998.701,200.606l1.904,0.693l0.693-1.905
						l-1.904-0.693L998.701,200.606z"/>
				</g>
			</g>
			<g transform="translate(1000,300) scale(0.0448) rotate(-25)">
				<g id="shape_other_10_1_113_">
					<path d="M997.97,300.947l1.084-2.977l2.977,1.083l-1.084,2.977L997.97,300.947z M998.376,300.757l2.382,0.867l0.866-2.381
						l-2.382-0.867L998.376,300.757z"/>
				</g>
			</g>
			<g transform="translate(1000,400) scale(0.05376) rotate(-25)">
				<g id="shape_other_10_1_114_">
					<path d="M997.563,401.136l1.301-3.572l3.572,1.301l-1.301,3.572L997.563,401.136z M998.051,400.909l2.858,1.04l1.04-2.858
						l-2.858-1.04L998.051,400.909z"/>
				</g>
			</g>
			<g transform="translate(1000,500) scale(0.06272) rotate(-25)">
				<g id="shape_other_10_1_115_">
					<path d="M997.158,501.325l1.517-4.167l4.167,1.517l-1.517,4.167L997.158,501.325z M997.727,501.061l3.334,1.213l1.213-3.334
						l-3.334-1.213L997.727,501.061z"/>
				</g>
			</g>
			<g transform="translate(1000,600) scale(0.07168) rotate(-25)">
				<g id="shape_other_10_1_116_">
					<path d="M996.752,601.515l1.733-4.763l4.763,1.733l-1.733,4.763L996.752,601.515z M997.401,601.212l3.81,1.387l1.387-3.811
						l-3.81-1.387L997.401,601.212z"/>
				</g>
			</g>
			<g transform="translate(1000,700) scale(0.08064) rotate(-25)">
				<g id="shape_other_10_1_117_">
					<path d="M996.346,701.704l1.95-5.358l5.358,1.95l-1.95,5.358L996.346,701.704z M997.076,701.363l4.287,1.561l1.56-4.287
						l-4.287-1.56L997.076,701.363z"/>
				</g>
			</g>
			<g transform="translate(1000,800) scale(0.0896) rotate(-25)">
				<g id="shape_other_10_1_118_">
					<path d="M995.939,801.894l2.167-5.954l5.954,2.167l-2.167,5.954L995.939,801.894z M996.752,801.515l4.763,1.733l1.733-4.763
						l-4.763-1.733L996.752,801.515z"/>
				</g>
			</g>
			<g transform="translate(1000,900) scale(0.09856) rotate(-25)">
				<g id="shape_other_10_1_119_">
					<path d="M995.533,902.083l2.384-6.549l6.55,2.383l-2.384,6.549L995.533,902.083z M996.427,901.666l5.239,1.907l1.907-5.239
						l-5.239-1.907L996.427,901.666z"/>
				</g>
			</g>
			<g transform="scale(1) ">
				<g id="shape_other_10_1_120_">
					<path d="M995.128,1002.273l2.601-7.145l7.144,2.6l-2.601,7.145L995.128,1002.273z M996.102,1001.817l5.715,2.08l2.08-5.715
						l-5.715-2.08L996.102,1001.817z"/>
				</g>
			</g>
		</g>
	</g>
</g>
</svg>
